# xmcd
#
# Track frame offsets:
#	150
#	9839
#	38972
#	62173
#	105625
#	130250
#	148131
#	159790
#	197075
#
# Disc length: 3104 seconds
#
# Revision: 0
# Processed by: cddbd v1.4PL0 Copyright (c) Steve Scherf et al.
# Submitted via: dBpowerAMP V4.0
#
DISCID=730c1e09
DTITLE=Gov't Mule - Sea Bright NJ, 8-16-2000 Disc 1
DYEAR=2000
DGENRE=Blues
TTITLE0=Grinnin' In Your Face
TTITLE1=Mule
TTITLE2=Rocking Horse
TTITLE3=Thorazine Shuffle
TTITLE4=Lay Your Burden Down
TTITLE5=Bad Little Doggie
TTITLE6=Pygmy Twylyte
TTITLE7=Blind Man In The Dark
TTITLE8=War Pigs
EXTD=
EXTT0=
EXTT1=
EXTT2=
EXTT3=
EXTT4=
EXTT5=
EXTT6=
EXTT7=
EXTT8=
PLAYORDER=
